HIERARCHY
ROOT Hips
{
  OFFSET -281.163 91.4194 1547.74
  CHANNELS 6 Xposition Yposition Zposition Zrotation Xrotation Yrotation
  JOINT Spine
  {
    OFFSET 0 8 0
    CHANNELS 6 Xposition Yposition Zposition Zrotation Xrotation Yrotation
    JOINT Spine1
    {
      OFFSET 0 8 0
      CHANNELS 6 Xposition Yposition Zposition Zrotation Xrotation Yrotation
      JOINT Spine2
      {
        OFFSET 0 8 0
        CHANNELS 6 Xposition Yposition Zposition Zrotation Xrotation Yrotation
        JOINT Spine3
        {
          OFFSET 0 8 0
          CHANNELS 6 Xposition Yposition Zposition Zrotation Xrotation Yrotation
          JOINT Neck
          {
            OFFSET 0 17 0
            CHANNELS 6 Xposition Yposition Zposition Zrotation Xrotation Yrotation
            JOINT Head
            {
              OFFSET 0 10.8 0
              CHANNELS 6 Xposition Yposition Zposition Zrotation Xrotation Yrotation
              End Site
              {
                OFFSET 0 20.25 0
              }
            }
          }
          JOINT LeftShoulder
          {
            OFFSET 5 17 0
            CHANNELS 6 Xposition Yposition Zposition Zrotation Xrotation Yrotation
            JOINT LeftShoulder2
            {
              OFFSET 6.45 0 0
              CHANNELS 6 Xposition Yposition Zposition Zrotation Xrotation Yrotation
              JOINT LeftArm
              {
                OFFSET 6.45 0 0
                CHANNELS 6 Xposition Yposition Zposition Zrotation Xrotation Yrotation
                JOINT LeftForeArm
                {
                  OFFSET 0 -32.4 -2
                  CHANNELS 6 Xposition Yposition Zposition Zrotation Xrotation Yrotation
                  JOINT LeftHand
                  {
                    OFFSET 0 -25.65 2
                    CHANNELS 6 Xposition Yposition Zposition Zrotation Xrotation Yrotation
                    JOINT LeftHandThumb1
                    {
                      OFFSET -0.5 -1.5 2.65
                      CHANNELS 6 Xposition Yposition Zposition Zrotation Xrotation Yrotation
                      JOINT LeftHandThumb2
                      {
                        OFFSET 0 -3.8 3.7
                        CHANNELS 6 Xposition Yposition Zposition Zrotation Xrotation Yrotation
                        JOINT LeftHandThumb3
                        {
                          OFFSET 0 -3 2.7
                          CHANNELS 6 Xposition Yposition Zposition Zrotation Xrotation Yrotation
                          End Site
                          {
                            OFFSET 0 -2.3 1.8
                          }
                        }
                      }
                    }
                    JOINT LeftHandIndex
                    {
                      OFFSET 0 -1.9 1.6
                      CHANNELS 6 Xposition Yposition Zposition Zrotation Xrotation Yrotation
                      JOINT LeftHandIndex1
                      {
                        OFFSET 0 -8.3 1.9
                        CHANNELS 6 Xposition Yposition Zposition Zrotation Xrotation Yrotation
                        JOINT LeftHandIndex2
                        {
                          OFFSET 0 -4.5 0
                          CHANNELS 6 Xposition Yposition Zposition Zrotation Xrotation Yrotation
                          JOINT LeftHandIndex3
                          {
                            OFFSET 0 -3.4 0
                            CHANNELS 6 Xposition Yposition Zposition Zrotation Xrotation Yrotation
                            End Site
                            {
                              OFFSET 0 -2.6 0
                            }
                          }
                        }
                      }
                    }
                    JOINT LeftHandMiddle
                    {
                      OFFSET -0.25 -2.2 0.4
                      CHANNELS 6 Xposition Yposition Zposition Zrotation Xrotation Yrotation
                      JOINT LeftHandMiddle1
                      {
                        OFFSET 0 -8.3 1
                        CHANNELS 6 Xposition Yposition Zposition Zrotation Xrotation Yrotation
                        JOINT LeftHandMiddle2
                        {
                          OFFSET 0 -4.65 0
                          CHANNELS 6 Xposition Yposition Zposition Zrotation Xrotation Yrotation
                          JOINT LeftHandMiddle3
                          {
                            OFFSET 0 -3.3 0
                            CHANNELS 6 Xposition Yposition Zposition Zrotation Xrotation Yrotation
                            End Site
                            {
                              OFFSET 0 -2.7 0
                            }
                          }
                        }
                      }
                    }
                    JOINT LeftHandRing
                    {
                      OFFSET -0.5 -2.15 -0.8
                      CHANNELS 6 Xposition Yposition Zposition Zrotation Xrotation Yrotation
                      JOINT LeftHandRing1
                      {
                        OFFSET 0 -7.75 -0.2
                        CHANNELS 6 Xposition Yposition Zposition Zrotation Xrotation Yrotation
                        JOINT LeftHandRing2
                        {
                          OFFSET 0 -3.8 0
                          CHANNELS 6 Xposition Yposition Zposition Zrotation Xrotation Yrotation
                          JOINT LeftHandRing3
                          {
                            OFFSET 0 -3.4 0
                            CHANNELS 6 Xposition Yposition Zposition Zrotation Xrotation Yrotation
                            End Site
                            {
                              OFFSET 0 -2.6 0
                            }
                          }
                        }
                      }
                    }
                    JOINT LeftHandPinky
                    {
                      OFFSET -0.75 -1.75 -1.85
                      CHANNELS 6 Xposition Yposition Zposition Zrotation Xrotation Yrotation
                      JOINT LeftHandPinky1
                      {
                        OFFSET 0 -7.15 -1
                        CHANNELS 6 Xposition Yposition Zposition Zrotation Xrotation Yrotation
                        JOINT LeftHandPinky2
                        {
                          OFFSET 0 -3 0
                          CHANNELS 6 Xposition Yposition Zposition Zrotation Xrotation Yrotation
                          JOINT LeftHandPinky3
                          {
                            OFFSET 0 -2.35 0
                            CHANNELS 6 Xposition Yposition Zposition Zrotation Xrotation Yrotation
                            End Site
                            {
                              OFFSET 0 -2.1 0
                            }
                          }
                        }
                      }
                    }
                  }
                }
              }
            }
          }
          JOINT RightShoulder
          {
            OFFSET -5 17 0
            CHANNELS 6 Xposition Yposition Zposition Zrotation Xrotation Yrotation
            JOINT RightShoulder2
            {
              OFFSET -6.45 0 0
              CHANNELS 6 Xposition Yposition Zposition Zrotation Xrotation Yrotation
              JOINT RightArm
              {
                OFFSET -6.45 0 0
                CHANNELS 6 Xposition Yposition Zposition Zrotation Xrotation Yrotation
                JOINT RightForeArm
                {
                  OFFSET 0 -32.4 -2
                  CHANNELS 6 Xposition Yposition Zposition Zrotation Xrotation Yrotation
                  JOINT RightHand
                  {
                    OFFSET 0 -25.65 2
                    CHANNELS 6 Xposition Yposition Zposition Zrotation Xrotation Yrotation
                    JOINT RightHandThumb1
                    {
                      OFFSET 0.5 -1.5 2.65
                      CHANNELS 6 Xposition Yposition Zposition Zrotation Xrotation Yrotation
                      JOINT RightHandThumb2
                      {
                        OFFSET 0 -3.8 3.7
                        CHANNELS 6 Xposition Yposition Zposition Zrotation Xrotation Yrotation
                        JOINT RightHandThumb3
                        {
                          OFFSET 0 -3 2.7
                          CHANNELS 6 Xposition Yposition Zposition Zrotation Xrotation Yrotation
                          End Site
                          {
                            OFFSET 0 -2.3 1.8
                          }
                        }
                      }
                    }
                    JOINT RightHandIndex
                    {
                      OFFSET 0 -1.9 1.6
                      CHANNELS 6 Xposition Yposition Zposition Zrotation Xrotation Yrotation
                      JOINT RightHandIndex1
                      {
                        OFFSET 0 -8.3 1.9
                        CHANNELS 6 Xposition Yposition Zposition Zrotation Xrotation Yrotation
                        JOINT RightHandIndex2
                        {
                          OFFSET 0 -4.5 0
                          CHANNELS 6 Xposition Yposition Zposition Zrotation Xrotation Yrotation
                          JOINT RightHandIndex3
                          {
                            OFFSET 0 -3.4 0
                            CHANNELS 6 Xposition Yposition Zposition Zrotation Xrotation Yrotation
                            End Site
                            {
                              OFFSET 0 -2.6 0
                            }
                          }
                        }
                      }
                    }
                    JOINT RightHandMiddle
                    {
                      OFFSET 0.25 -2.2 0.4
                      CHANNELS 6 Xposition Yposition Zposition Zrotation Xrotation Yrotation
                      JOINT RightHandMiddle1
                      {
                        OFFSET 0 -8.3 1
                        CHANNELS 6 Xposition Yposition Zposition Zrotation Xrotation Yrotation
                        JOINT RightHandMiddle2
                        {
                          OFFSET 0 -4.65 0
                          CHANNELS 6 Xposition Yposition Zposition Zrotation Xrotation Yrotation
                          JOINT RightHandMiddle3
                          {
                            OFFSET 0 -3.3 0
                            CHANNELS 6 Xposition Yposition Zposition Zrotation Xrotation Yrotation
                            End Site
                            {
                              OFFSET 0 -2.7 0
                            }
                          }
                        }
                      }
                    }
                    JOINT RightHandRing
                    {
                      OFFSET 0.5 -2.15 -0.8
                      CHANNELS 6 Xposition Yposition Zposition Zrotation Xrotation Yrotation
                      JOINT RightHandRing1
                      {
                        OFFSET 0 -7.75 -0.2
                        CHANNELS 6 Xposition Yposition Zposition Zrotation Xrotation Yrotation
                        JOINT RightHandRing2
                        {
                          OFFSET 0 -3.8 0
                          CHANNELS 6 Xposition Yposition Zposition Zrotation Xrotation Yrotation
                          JOINT RightHandRing3
                          {
                            OFFSET 0 -3.4 0
                            CHANNELS 6 Xposition Yposition Zposition Zrotation Xrotation Yrotation
                            End Site
                            {
                              OFFSET 0 -2.6 0
                            }
                          }
                        }
                      }
                    }
                    JOINT RightHandPinky
                    {
                      OFFSET 0.75 -1.75 -1.85
                      CHANNELS 6 Xposition Yposition Zposition Zrotation Xrotation Yrotation
                      JOINT RightHandPinky1
                      {
                        OFFSET 0 -7.15 -1
                        CHANNELS 6 Xposition Yposition Zposition Zrotation Xrotation Yrotation
                        JOINT RightHandPinky2
                        {
                          OFFSET 0 -3 0
                          CHANNELS 6 Xposition Yposition Zposition Zrotation Xrotation Yrotation
                          JOINT RightHandPinky3
                          {
                            OFFSET 0 -2.35 0
                            CHANNELS 6 Xposition Yposition Zposition Zrotation Xrotation Yrotation
                            End Site
                            {
                              OFFSET 0 -2.1 0
                            }
                          }
                        }
                      }
                    }
                  }
                }
              }
            }
          }
        }
      }
    }
  }
  JOINT LeftUpLeg
  {
    OFFSET 8 0 0
    CHANNELS 6 Xposition Yposition Zposition Zrotation Xrotation Yrotation
    JOINT LeftLeg
    {
      OFFSET 0 -45 -1
      CHANNELS 6 Xposition Yposition Zposition Zrotation Xrotation Yrotation
      JOINT LeftFoot
      {
        OFFSET 0 -41 -2
        CHANNELS 6 Xposition Yposition Zposition Zrotation Xrotation Yrotation
        JOINT LeftToeBase
        {
          OFFSET 0 -7.5 12.5
          CHANNELS 6 Xposition Yposition Zposition Zrotation Xrotation Yrotation
          JOINT LeftFootToe
          {
            OFFSET 0 0 4
            CHANNELS 6 Xposition Yposition Zposition Zrotation Xrotation Yrotation
            End Site
            {
              OFFSET 0 0 0
            }
          }
        }
      }
    }
  }
  JOINT RightUpLeg
  {
    OFFSET -8 0 0
    CHANNELS 6 Xposition Yposition Zposition Zrotation Xrotation Yrotation
    JOINT RightLeg
    {
      OFFSET 0 -45 -1
      CHANNELS 6 Xposition Yposition Zposition Zrotation Xrotation Yrotation
      JOINT RightFoot
      {
        OFFSET 0 -41 -2
        CHANNELS 6 Xposition Yposition Zposition Zrotation Xrotation Yrotation
        JOINT RightToeBase
        {
          OFFSET 0 -7.5 12.5
          CHANNELS 6 Xposition Yposition Zposition Zrotation Xrotation Yrotation
          JOINT RightFootToe
          {
            OFFSET 0 0 4
            CHANNELS 6 Xposition Yposition Zposition Zrotation Xrotation Yrotation
            End Site
            {
              OFFSET 0 0 0
            }
          }
        }
      }
    }
  }
}
MOTION
Frames:	3
Frame Time:	0.0111111
-280.904 91.4194 1547.86 2.68717 -2.94057 134.46 0 8 0 5.97289 8.57899 -0.3627 1.13687e-13 8 -2.27374e-13 -1.69904 2.34599 5.4186 0 8 2.27374e-13 -0.822213 1.19392 2.70198 -1.13687e-13 8 2.27374e-13 -0.821011 1.19224 2.69814 1.13687e-13 17 0 -0.81816 3.53538 -1.55323 0 10.8 -2.27374e-13 -2.2368 2.5301 -3.6886 5 17 0 -9.14678 -0.196948 -1.96588 6.45 -5.68434e-14 -4.54747e-13 0.758964 -0.771052 4.79187 6.45 -2.84217e-14 -2.27374e-13 -3.46053 36.3053 73.82 0 -32.4 -2 -105.818 -35.4194 -167.54 2.27374e-13 -25.65 2 12.7167 -5.73008 -32.7357 -0.5 -1.5 2.65 -29.7457 -52.4585 120.648 5.68434e-14 -3.8 3.7 -0.0402537 38.7988 0.00875574 0 -3 2.7 -0.0370573 58.1902 0.0400065 -5.68434e-14 -1.9 1.6 6.36111e-15 -6.36111e-15 -1.59028e-14 5.68434e-14 -8.3 1.9 -23.8888 21.7817 5.38886 -1.13687e-13 -4.5 5.68434e-14 -79.753 0.00300369 -0.00130555 2.27374e-13 -3.4 -5.68434e-14 -65.4923 -0.00172207 0.0010284 -0.25 -2.2 0.4 6.36111e-15 -6.36111e-15 -1.59028e-14 1.7053e-13 -8.3 1 -37.0401 21.0334 9.00716 2.27374e-13 -4.65 -5.68434e-14 -76.8967 -0.00649822 0.000627864 0 -3.3 -5.68434e-14 -90.0002 5.96354e-14 -6.95746e-14 -0.5 -2.15 -0.8 6.36111e-15 -6.36111e-15 -1.59028e-14 0 -7.75 -0.2 -81.2792 -1.46404 12.2472 0 -3.8 -5.68434e-14 -19.6061 9.54166e-15 0.00439972 0 -3.4 5.68434e-14 -90.0002 -0.0017395 -1.15295e-13 -0.75 -1.75 -1.85 6.36111e-15 -6.36111e-15 -1.59028e-14 5.68434e-14 -7.15 -1 -76.7061 10.389 16.6635 0 -3 -5.68434e-14 -52.3407 0.00822956 -0.00297766 0 -2.35 2.84217e-14 -90.0002 3.77691e-14 -6.36111e-15 -5 17 0 3.45286 1.27729 0.74225 -6.45 -5.68434e-14 2.27374e-13 -1.42883 0.554791 -0.495462 -6.45 0 0 -60.087 -11.2297 -1.902 2.84217e-14 -32.4 -2 23.9695 -73.5349 15.757 0 -25.65 2 -15.9961 18.5228 7.27223 0.5 -1.5 2.65 12.4686 20.687 13.6547 0 -3.8 3.7 1.90695 10.2113 -0.701159 0 -3 2.7 0.269409 39.6373 -0.207618 5.68434e-14 -1.9 1.6 -4.77083e-15 3.18055e-15 -3.18055e-15 0 -8.3 1.9 1.64073 10.6829 -0.246486 1.13687e-13 -4.5 2.27374e-13 -1.72932e-07 0.00199724 0.00496098 5.68434e-14 -3.4 -2.27374e-13 -1.69411e-07 0.0019835 0.00489362 0.25 -2.2 0.4 -4.77083e-15 3.18055e-15 -3.18055e-15 0 -8.3 1 1.44337 5.45042 -0.532152 -5.68434e-14 -4.65 0 0.312277 -0.00598021 -0 0 -3.3 0 0.301895 -0.00575331 -0 0.5 -2.15 -0.8 -4.77083e-15 3.18055e-15 -3.18055e-15 -1.13687e-13 -7.75 -0.2 1.16672 -4.08831 -1.18363 5.68434e-14 -3.8 2.27374e-13 5.55596 -0.106008 0.17799 0 -3.4 0 4.53313 -0.0598853 0.149756 0.75 -1.75 -1.85 -4.77083e-15 3.18055e-15 -3.18055e-15 -1.13687e-13 -7.15 -1 0.891779 -9.90993 -1.58287 5.68434e-14 -3 -1.13687e-13 17.6439 -0.0931309 0.580472 -4.26326e-14 -2.35 -2.27374e-13 12.9315 0.070383 0.401808 8 0 -2.27374e-13 -3.33802 -26.6118 -14.1537 0 -45 -1 -3.34541 42.5419 9.84057 -2.27374e-13 -41 -2 -3.28267 -0.860737 22.5941 -1.13687e-13 -7.5 12.5 1.51994e-15 -1.26688 -3.18133e-15 1.13687e-13 -1.13687e-13 4 -6.27883 0.440778 35.0028 -8 -2.84217e-14 -2.27374e-13 -0.608362 -9.22026 -19.3505 -2.27374e-13 -45 -1 0.234239 20.2888 -1.85083 2.27374e-13 -41 -2 1.44938 -10.1521 6.16704 2.27374e-13 -7.5 12.5 7.76503e-18 2.32951e-18 6.36111e-15 2.27374e-13 0 4 -0.820872 13.4562 55.8175 
-280.672 91.4289 1547.96 2.60546 -2.81199 134.829 -2.27374e-13 8 0 5.94224 8.6766 -0.386835 1.13687e-13 8 -2.27374e-13 -1.73532 2.50668 5.37728 1.13687e-13 8 0 -0.838667 1.2746 2.68045 0 8 4.54747e-13 -0.837427 1.2728 2.6766 0 17 2.27374e-13 -0.839805 3.39289 -1.60168 0 10.8 -4.54747e-13 -2.26468 2.77231 -3.79132 5 17 0 -9.13905 -0.475636 -1.86512 6.45 5.68434e-14 -2.27374e-13 0.730598 -0.771052 4.79187 6.45 0 0 -3.46053 36.3053 73.82 -1.13687e-13 -32.4 -2 -106.193 -35.7836 -167.584 2.27374e-13 -25.65 2 12.7412 -5.73692 -32.6811 -0.5 -1.5 2.65 -29.3166 -52.1011 120.98 -5.68434e-14 -3.8 3.7 -0.0402849 38.9578 0.00877535 -5.68434e-14 -3 2.7 -0.0268172 59.0764 0.0276941 5.68434e-14 -1.9 1.6 9.54166e-15 0 -1.11319e-14 0 -8.3 1.9 -24.0849 21.7712 5.42851 0 -4.5 5.68434e-14 -79.7573 0.00300369 -0.00130555 2.27374e-13 -3.4 0 -65.4997 -0.00172207 0.0010284 -0.25 -2.2 0.4 9.54166e-15 0 -1.11319e-14 1.13687e-13 -8.3 1 -37.199 20.96 9.01395 2.27374e-13 -4.65 0 -76.8699 -0.00649822 0.000627864 2.27374e-13 -3.3 -5.68434e-14 -90.0002 3.05818e-14 -3.36505e-14 -0.5 -2.15 -0.8 9.54166e-15 0 -1.11319e-14 0 -7.75 -0.2 -81.3108 -1.42818 12.2564 0 -3.8 -8.52651e-14 -19.6858 -4.77083e-15 0.00439972 0 -3.4 1.13687e-13 -90.0002 -0.0017395 -3.49861e-14 -0.75 -1.75 -1.85 9.54166e-15 0 -1.11319e-14 -5.68434e-14 -7.15 -1 -76.6649 10.3855 16.6402 0 -3 -5.68434e-14 -52.3075 0.00822956 -0.00297766 -1.13687e-13 -2.35 5.68434e-14 -90.0002 4.41302e-14 -7.55382e-15 -5 17 2.27374e-13 3.46304 1.06995 0.831454 -6.45 -8.52651e-14 -2.27374e-13 -1.42849 0.554788 -0.530588 -6.45 -5.68434e-14 0 -60.8024 -11.5955 -1.73136 -2.84217e-14 -32.4 -2 23.4059 -73.6815 15.0006 0 -25.65 2 -15.0819 18.9644 6.63414 0.5 -1.5 2.65 11.6912 17.9838 13.8987 -2.84217e-14 -3.8 3.7 1.86308 12.2407 -0.66211 0 -3 2.7 0.268871 39.2245 -0.228869 1.13687e-13 -1.9 1.6 6.36111e-15 -3.18055e-15 -3.18055e-15 -5.68434e-14 -8.3 1.9 1.4964 10.2464 -0.20874 0 -4.5 2.27374e-13 -1.72932e-07 0.00199724 0.00496098 0 -3.4 2.27374e-13 -1.69411e-07 0.0019835 0.00489362 0.25 -2.2 0.4 6.36111e-15 -3.18055e-15 -3.18055e-15 5.68434e-14 -8.3 1 1.30029 5.51658 -0.217541 0 -4.65 0 -3.18055e-15 3.18055e-15 4.77083e-15 0 -3.3 0 -5.56597e-15 -6.36111e-15 -1.59028e-15 0.5 -2.15 -0.8 6.36111e-15 -3.18055e-15 -3.18055e-15 -1.13687e-13 -7.75 -0.2 1.07718 -3.04762 -0.299762 0 -3.8 0 2.66216 -0.0164166 0.0262766 0 -3.4 2.27374e-13 2.29525 -0.0113092 0.0229534 0.75 -1.75 -1.85 6.36111e-15 -3.18055e-15 -3.18055e-15 -5.68434e-14 -7.15 -1 0.865285 -8.33091 -0.355179 5.68434e-14 -3 2.27374e-13 11.6643 -0.0119397 0.14381 1.42109e-14 -2.35 0 8.8019 0.0181184 0.0972314 8 1.42109e-14 2.27374e-13 -3.24937 -26.952 -14.0544 -2.27374e-13 -45 -1 -3.14658 42.0847 9.41978 -1.13687e-13 -41 -2 -3.21535 -1.01436 23.0103 5.68434e-14 -7.5 12.5 1.59028e-15 1.59028e-15 -0 1.13687e-13 -5.68434e-14 4 -5.94214 -0.77506 35.1268 -8 1.42109e-14 2.27374e-13 -0.640737 -9.09936 -19.5312 0 -45 -1 0.23295 20.2868 -1.84729 -2.27374e-13 -41 -2 1.35015 -10.312 6.13133 2.27374e-13 -7.5 12.5 6.98852e-18 7.76503e-19 -0 2.27374e-13 0 4 -0.888494 13.6855 55.8823 
-280.464 91.4479 1548.07 2.49426 -2.65544 135.188 0 8 0 5.87592 8.76771 -0.4089 0 8 -4.54747e-13 -1.76609 2.67378 5.32045 1.13687e-13 8 4.54747e-13 -0.852416 1.35837 2.65117 -1.13687e-13 8 2.27374e-13 -0.851145 1.35642 2.64732 0 17 0 -0.872124 3.25947 -1.6502 1.13687e-13 10.8 -4.54747e-13 -2.31164 3.05045 -3.89363 5 17 -2.27374e-13 -9.14089 -0.762286 -1.74157 6.45 -5.68434e-14 -4.54747e-13 0.703944 -0.775358 4.79462 6.45 2.84217e-14 0 -3.46053 36.3053 73.82 0 -32.4 -2 -106.54 -36.1411 -167.622 1.13687e-13 -25.65 2 12.7658 -5.74377 -32.6263 -0.5 -1.5 2.65 -28.9436 -51.7908 121.25 -2.84217e-14 -3.8 3.7 -0.0403072 39.0707 0.00878937 -2.84217e-14 -3 2.7 -0.0128119 59.7883 0.0113177 5.68434e-14 -1.9 1.6 9.54166e-15 -3.18055e-15 -1.03368e-14 0 -8.3 1.9 -24.2482 21.7289 5.4528 0 -4.5 0 -79.7345 0.00300369 -0.00130555 2.27374e-13 -3.4 -5.68434e-14 -65.4608 -0.00172207 0.0010284 -0.25 -2.2 0.4 9.54166e-15 -3.18055e-15 -1.03368e-14 1.7053e-13 -8.3 1 -37.3232 20.8623 9.00221 4.54747e-13 -4.65 5.68434e-14 -76.8914 -0.00649822 0.000627864 2.27374e-13 -3.3 -5.68434e-14 -90.0002 1.00088e-13 -1.07741e-13 -0.5 -2.15 -0.8 9.54166e-15 -3.18055e-15 -1.03368e-14 0 -7.75 -0.2 -81.3536 -1.35201 12.2755 0 -3.8 0 -19.6876 3.18055e-15 0.00439972 0 -3.4 2.84217e-14 -90.0002 -0.0017395 -1.10524e-13 -0.75 -1.75 -1.85 9.54166e-15 -3.18055e-15 -1.03368e-14 0 -7.15 -1 -76.6131 10.3815 16.6116 2.27374e-13 -3 -2.84217e-14 -52.3703 0.00822956 -0.00297766 -1.13687e-13 -2.35 5.68434e-14 -90.0002 9.02482e-14 -3.81667e-14 -5 17 0 3.46121 0.862783 0.947915 -6.45 -1.13687e-13 0 -1.42817 0.554785 -0.563887 -6.45 2.84217e-14 0 -61.4952 -11.9725 -1.56638 -2.84217e-14 -32.4 -2 22.6983 -73.8553 14.1741 -1.42109e-14 -25.65 2 -14.2954 19.4022 6.13271 0.5 -1.5 2.65 11.0802 15.6651 13.9712 0 -3.8 3.7 1.78144 14.2982 -0.614239 2.84217e-14 -3 2.7 0.261872 39.0867 -0.230965 0 -1.9 1.6 -4.77083e-15 0 -6.36111e-15 -5.68434e-14 -8.3 1.9 1.39656 9.93597 -0.181164 5.68434e-14 -4.5 2.27374e-13 -1.72932e-07 0.00199724 0.00496098 0 -3.4 0 -1.69411e-07 0.0019835 0.00489362 0.25 -2.2 0.4 -4.77083e-15 0 -6.36111e-15 0 -8.3 1 1.22324 5.44858 -0.130995 0 -4.65 0 4.6118e-14 0.000102942 1.59028e-15 0 -3.3 0 1.82882e-14 9.90357e-05 4.77083e-15 0.5 -2.15 -0.8 -4.77083e-15 0 -6.36111e-15 0 -7.75 -0.2 1.04851 -2.65731 -0.0846034 0 -3.8 -2.27374e-13 0.844892 -0.00301119 -0.000790185 0 -3.4 2.27374e-13 0.773251 -0.00268767 -0.00074985 0.75 -1.75 -1.85 -4.77083e-15 0 -6.36111e-15 0 -7.15 -1 0.862077 -7.70526 -0.0591809 0 -3 0 6.61631 -0.0173418 0.0111553 -2.84217e-14 -2.35 0 5.26185 -0.0120542 0.00617851 8 0 -2.27374e-13 -3.11986 -27.1528 -13.9799 0 -45 -1 -2.88301 41.3023 8.87531 -3.41061e-13 -41 -2 -3.15235 -1.20766 23.4877 0 -7.5 12.5 2.38542e-15 0 -0 1.7053e-13 -5.68434e-14 4 -5.50797 -0.699301 35.4496 -8 0 -2.27374e-13 -0.724988 -9.00382 -19.6832 0 -45 -1 0.235071 20.3072 -1.85162 0 -41 -2 1.25667 -10.4497 6.11644 2.27374e-13 -7.5 12.5 8.54153e-18 3.88251e-19 9.54166e-15 0 -1.38778e-17 4 -0.942386 13.8867 55.9032 
